<?xml version="1.0" encoding="UTF-8" standalone="no"?>
<!-- Created with Inkscape (http://www.inkscape.org/) -->

<svg
   xmlns:dc="http://purl.org/dc/elements/1.1/"
   xmlns:cc="http://creativecommons.org/ns#"
   xmlns:rdf="http://www.w3.org/1999/02/22-rdf-syntax-ns#"
   xmlns:svg="http://www.w3.org/2000/svg"
   xmlns="http://www.w3.org/2000/svg"
   xmlns:sodipodi="http://sodipodi.sourceforge.net/DTD/sodipodi-0.dtd"
   xmlns:inkscape="http://www.inkscape.org/namespaces/inkscape"
   width="639.11517mm"
   height="516.17206mm"
   viewBox="0 0 639.11518 516.17206"
   version="1.1"
   id="svg8"
   inkscape:version="0.92.5 (2060ec1f9f, 2020-04-08)"
   sodipodi:docname="goldie-noborder.svg"
   inkscape:export-filename="/home/steven/IdeaProjects/twitch-followers/public/goldie.png"
   inkscape:export-xdpi="96"
   inkscape:export-ydpi="96">
  <defs
     id="defs2" />
  <sodipodi:namedview
     id="base"
     pagecolor="#ffffff"
     bordercolor="#666666"
     borderopacity="1.0"
     inkscape:pageopacity="0.0"
     inkscape:pageshadow="2"
     inkscape:zoom="0.24748738"
     inkscape:cx="-50.137389"
     inkscape:cy="1188.3151"
     inkscape:document-units="mm"
     inkscape:current-layer="layer3"
     showgrid="false"
     inkscape:window-width="2556"
     inkscape:window-height="1376"
     inkscape:window-x="1080"
     inkscape:window-y="1120"
     inkscape:window-maximized="0"
     showguides="false" />
  <metadata
     id="metadata5">
    <rdf:RDF>
      <cc:Work
         rdf:about="">
        <dc:format>image/svg+xml</dc:format>
        <dc:type
           rdf:resource="http://purl.org/dc/dcmitype/StillImage" />
        <dc:title></dc:title>
      </cc:Work>
    </rdf:RDF>
  </metadata>
  <g
     inkscape:groupmode="layer"
     id="layer5"
     inkscape:label="Layer 4"
     transform="translate(464.66343,-105.7368)" />
  <g
     inkscape:label="Layer 1"
     inkscape:groupmode="layer"
     id="layer1"
     transform="translate(464.66343,-105.7368)" />
  <g
     inkscape:groupmode="layer"
     id="layer2"
     inkscape:label="Layer 2"
     transform="translate(464.66343,-105.7368)" />
  <g
     inkscape:groupmode="layer"
     id="layer3"
     inkscape:label="Layer 3"
     transform="translate(464.66343,-105.7368)">
    <g
       id="g1533"
       transform="matrix(4.6061894,0,0,4.6061894,-629.106,-381.30691)">
      <g
         style="stroke:none"
         transform="translate(-240.44064,-112.82312)"
         id="g5677">
        <path
           style="fill:#100f0e;fill-opacity:1;stroke:none;stroke-width:0.5;stroke-linecap:butt;stroke-linejoin:miter;stroke-miterlimit:4;stroke-dasharray:none;stroke-opacity:1"
           d="m 332.77814,328.67732 -19.27314,0.84875 -1.79249,-2.60848 -19.63982,-3.28202 -0.20877,-3.61217 -8.37852,-6.81576 -4.9382,-9.3927 1.38049,-2.83398 -3.7867,-11.84904 1.18134,-14.48925 4.30926,-11.17539 7.95803,-6.11832 9.78433,-1.68863 4.68451,0.21358 c 0,0 -0.78343,3.64521 -0.41147,4.01716 0.37196,0.37196 3.26836,-1.31857 3.26836,-1.31857 l 2.68826,14.68442 3.71992,12.28737 3.07146,-0.63154 1.96695,0.85598 4.16748,12.30553 6.07064,7.24989 2.64675,1.40256 c 20.69214,16.61626 19.33255,10.01937 1.53133,21.95061 z"
           id="path3742-6"
           inkscape:connector-curvature="0"
           sodipodi:nodetypes="cccccccccccccccccccccccc" />
        <path
           style="fill:#2b241c;fill-opacity:1;stroke:none;stroke-width:0.26458332px;stroke-linecap:butt;stroke-linejoin:miter;stroke-opacity:1"
           d="m 329.06258,326.43719 c -3.70388,-2.06836 -8.24215,1.44782 -11.76972,-1.28009 -2.75041,-1.65786 -6.02119,-4.44061 -9.38849,-2.7691 -2.64925,2.25601 -6.47527,0.96349 -8.70413,-1.2351 -2.23315,-1.79519 -2.90362,-5.53571 -6.43828,-5.26363 -3.0837,0.23895 -5.72568,-1.50263 -5.71574,-4.73841 -0.71299,-3.61786 -1.53954,-7.22123 -2.10455,-10.84998 -1.18833,-4.16175 -5.11698,-7.40963 -4.67865,-12.03672 -0.0356,-3.17062 1.61121,-5.94831 2.59035,-8.8509 0.77821,-3.62221 -0.81809,-7.14184 -1.93698,-10.50814 1.06298,-3.57923 4.71527,-5.21972 7.17331,-7.69329 3.57465,-0.80401 7.70327,-3.99586 11.13826,-1.09875 1.53716,1.74127 4.35297,2.6967 6.01686,2.56922 0.41177,4.12789 -0.21924,8.60859 2.17357,12.27237 1.76375,3.55345 4.58812,7.5752 2.79074,11.6736 -1.50147,3.64077 2.50745,7.97522 6.20999,6.94274 2.98123,0.35974 3.39756,3.98916 4.4349,6.22396 0.56236,2.54245 3.18556,3.72792 3.86074,6.19313 0.69387,2.32736 1.85521,5.58148 4.87311,5.20874 2.11771,3.68153 0.26892,7.93156 0.13099,11.84497 -0.17595,1.13948 -0.38999,2.27343 -0.65628,3.39538 z"
           id="path4743-3"
           inkscape:connector-curvature="0" />
        <path
           style="fill:#483827;fill-opacity:1;stroke:none;stroke-width:0.26458332px;stroke-linecap:butt;stroke-linejoin:miter;stroke-opacity:1"
           d="m 283.13848,270.30771 c 0.18898,-0.37797 2.92931,-2.74032 6.04762,-3.49628 3.1183,-0.75594 12.75669,-3.02381 13.89062,-2.17335 1.13393,0.85045 1.32292,0.18898 1.98438,2.64582 0.66145,2.45686 1.13392,2.92932 0,5.57516 -1.13393,2.64583 0.94494,5.66963 1.22842,6.04761 0.28348,0.37798 4.34673,-0.0945 3.59077,2.64583 -0.75595,2.74034 -1.5119,3.68527 -2.83482,4.25224 -1.32292,0.56696 -3.1183,0.18899 -1.22842,2.55134 1.88988,2.36236 3.40179,3.68526 6.14211,5.76413 2.74033,2.07888 4.81919,3.68528 5.76415,4.7247 0.94493,1.03945 1.98437,1.32293 2.83482,3.68527 0.85042,2.36235 1.13393,4.34673 1.51188,5.66965 0.37799,1.32291 0.75597,1.5119 2.74035,2.64583 1.98437,1.13393 2.45684,-0.85045 2.07885,1.70089 -0.37795,2.55134 0.48094,4.41369 -0.98795,5.60863 -1.46889,1.19494 -2.79181,4.50224 -6.57156,3.08482 -3.77976,-1.41741 -8.81535,-4.91725 -11.05581,-2.9293 -2.24045,1.98793 -4.6302,1.3229 -5.00818,2.17335 -0.37798,0.85045 -3.97321,2.56613 -4.06547,0.66885 -0.0923,-1.89727 -1.60417,-4.54309 -3.11608,-7.28343 -1.5119,-2.74033 -0.47247,-4.91368 -2.64583,-2.83482 -11.5782,7.31253 -1.66229,-7.21737 -3.77976,-10.01636 -4.06325,-5.19719 -3.87426,-4.25224 -5.19718,-6.42561 -1.32291,-2.17335 -2.26785,-1.6064 -1.32291,-5.19716 0.94494,-3.59078 1.22842,-2.64583 1.88988,-6.70909 0.66146,-4.06324 1.13393,-5.38616 0,-7.37053 -1.13393,-1.98438 -1.88988,-5.00819 -1.88988,-5.00819 z"
           id="path4769-5"
           inkscape:connector-curvature="0"
           sodipodi:nodetypes="ccsccsccscccccccscscccccsscc" />
        <path
           style="fill:#664c30;fill-opacity:1;stroke:none;stroke-width:0.26458332px;stroke-linecap:butt;stroke-linejoin:miter;stroke-opacity:1"
           d="m 306.03344,320.29863 c 1.03877,-2.36752 0.7641,-7.24901 4.24073,-7.11018 2.61456,0.98795 5.38564,2.71252 8.20021,1.12921 2.15367,-0.51639 4.891,-3.85769 6.75524,-1.16909 1.11122,1.66821 4.50856,4.47857 0.67164,5.00661 -2.71931,1.34132 -7.64747,1.37581 -7.20362,5.33443 -1.6981,1.95407 -3.00427,-2.88653 -5.3099,-2.38427 -2.33929,-0.47478 -6.11858,2.44336 -7.23912,-0.73528 z"
           id="path4758-6"
           inkscape:connector-curvature="0" />
        <path
           style="fill:#664c30;fill-opacity:1;stroke:none;stroke-width:0.26458332px;stroke-linecap:butt;stroke-linejoin:miter;stroke-opacity:1"
           d="m 289.73787,282.31923 c 0.0855,-1.9673 -1.30377,-6.58128 2.4115,-4.99048 2.45811,2.20294 2.42075,5.99331 4.64262,8.35909 2.5427,1.91477 3.75821,-2.40922 5.17685,-3.81937 1.06637,-2.71995 3.83243,-3.20586 4.73952,-0.0999 1.38892,2.01237 -0.11327,1.71188 -1.87825,4.48839 -1.70902,2.60056 5.19152,6.64584 6.77308,8.36509 1.31625,2.52466 2.12258,4.39193 4.73605,5.04561 2.24323,0.68249 3.74079,1.6708 1.69915,4.43254 -1.68659,2.36255 0.15036,3.4385 -2.29779,4.58216 -5.29724,-1.53552 -1.68861,-3.97004 -7.38768,-4.11582 -2.76302,-0.26622 -4.32694,2.19633 -6.35196,3.5305 -2.4099,-0.26833 -5.2474,-1.19829 -6.72937,1.10831 -1.59133,1.02701 -1.99087,1.32648 -3.36965,-1.74257 -0.69794,-2.64414 -2.20842,-0.42487 -1.53951,-3.17187 0.87656,-3.47249 -2.21118,-5.76416 -3.78958,-8.71078 -1.07625,-1.9989 -4.16176,-3.33144 -3.24109,-5.97035 1.80613,-2.55875 5.20052,-3.27392 6.21369,-6.51573 l 0.11167,-0.37994 z"
           id="path4754-2"
           inkscape:connector-curvature="0"
           sodipodi:nodetypes="cccccccccccccccccccc" />
        <path
           style="fill:#9a6938;fill-opacity:1;stroke:none;stroke-width:0.26458332px;stroke-linecap:butt;stroke-linejoin:miter;stroke-opacity:1"
           d="m 287.96721,288.53325 c 0.53454,-0.8018 0.13363,-1.03566 1.06907,-0.90204 0.93545,0.13364 2.13816,0.20047 2.97338,0.66818 0.83522,0.46772 0.86862,1.9377 3.00678,0.66818 2.13816,-1.26954 3.04019,-1.87089 3.57473,-2.23838 0.53454,-0.36751 0.70158,-0.50114 1.9377,0.23386 1.23613,0.73498 1.43658,0.60135 2.17157,1.5702 0.73499,0.96886 0.13363,1.80407 2.07134,2.40542 1.9377,0.60137 3.70836,1.30295 3.64154,1.43658 -0.0668,0.13363 0.16705,0.83522 0.83522,1.46998 0.66818,0.63477 0.86863,1.16931 1.40317,1.73726 0.53453,0.56794 -1.31244,1.25806 1.02617,1.62557 2.33861,0.36748 2.4496,2.287 2.4496,2.287 0,0 -1.17058,0.49738 -1.2708,0.73124 -0.10023,0.23386 0.16704,0.86863 0.16704,1.33635 0,0.46772 -0.43431,1.33634 -0.46772,1.53679 -0.0334,0.20045 -0.53454,1.60362 -3.30746,-0.90204 -2.77292,-2.50564 -3.24064,-3.10701 -5.17835,-1.9711 -1.9377,1.13589 -1.5702,1.90429 -3.24064,1.63702 -1.67043,-0.26727 -1.83748,-0.83522 -3.842,-0.50113 -2.00452,0.33409 -3.74177,1.23612 -4.51017,0.20046 -0.7684,-1.03567 -0.70158,-1.23612 -2.47225,-3.74178 -1.77066,-2.50566 -3.95201,-4.03909 -4.3195,-3.97228 -0.3675,0.0668 -1.74467,-1.97041 -1.8783,-2.17087 -1.9244,-4.06268 2.4771,-1.06967 4.15988,-3.14447 z"
           id="path4767-9"
           inkscape:connector-curvature="0"
           sodipodi:nodetypes="ccssccccccccccscscccssccc" />
      </g>
      <g
         transform="translate(-186.83672,42.419633)"
         id="g5669">
        <path
           sodipodi:nodetypes="csccccccccscccscccccccccccccccsccccccsccccccccc"
           style="fill:#100f0e;fill-opacity:1;stroke:none;stroke-width:0.5;stroke-linecap:butt;stroke-linejoin:miter;stroke-miterlimit:4;stroke-dasharray:none;stroke-opacity:1"
           d="m 330.96028,75.014024 c 0,0 3.24494,-2.90636 4.00724,-3.71556 0.7623,-0.8092 7.47137,-4.96694 7.47137,-4.96694 l 6.56728,-3.01436 -2.49313,11.61806 2.19858,-0.76825 -1.29288,4.19459 1.32285,0.0369 -1.38433,3.64274 6.69628,10.04777 c 0,0 3.36547,9.413116 4.14364,10.254196 0.77817,0.84108 2.45067,6.99114 2.45067,6.99114 l -3.96875,1.11977 0.66226,1.0173 c 0,0 4.28122,3.50384 3.92617,3.73629 -0.35505,0.23245 -15.17172,8.41733 -15.17172,8.41733 l 5.29161,7.07308 -0.87139,2.05034 -0.54867,1.00758 2.99397,9.59767 0.60797,10.31874 -1.48185,9.26042 -0.0894,8.99691 -4.4481,3.28652 -7.4262,0.16144 -52.36835,-0.28631 -4.64048,-2.64102 0.20852,-3.04506 c -9.14143,-9.07944 -3.25397,-16.04041 -1.53133,-21.9506 l 3.6246,-13.77336 c 0,0 -1.23351,-1.32421 -1.23351,-1.85605 0,-0.53184 4.18194,-7.53041 4.49799,-7.59898 0.31605,-0.0686 -13.8905,-8.77213 -13.8905,-8.77213 l 4.10088,-4.21027 -4.77662,-2.06206 6.13911,-15.040556 7.4343,-12.5849 c 0,0 -1.7607,-2.61401 -1.44226,-2.886 0.31844,-0.27199 2.20652,-0.48373 2.20652,-0.48373 l -2.43548,-3.51346 2.21615,0.29256 -1.90217,-11.64856 12.42979,7.19102 5.44447,4.12469 11.06653,-1.06884 10.26051,0.60329 z"
           id="path3742"
           inkscape:connector-curvature="0" />
        <path
           style="fill:#2b241c;fill-opacity:1;stroke:none;stroke-width:0.26458332px;stroke-linecap:butt;stroke-linejoin:miter;stroke-opacity:1"
           d="m 335.95061,90.627675 c -10.96448,-11.375468 -18.00998,-3.911899 -24.74054,-9.606928 -10.72381,-5.780029 -22.74284,3.060172 -26.11238,12.260916 -1.28724,9.580507 -3.92733,21.921687 6.77059,27.386427 5.86114,10.3689 3.41835,21.49713 -3.78473,30.26032 -8.36812,-0.28046 -0.63462,19.70886 4.96579,10.12664 1.76842,13.6341 16.05145,10.66006 25.947,11.10132 9.93559,3.70115 24.71976,1.81944 29.1788,-9.26034 6.06964,-7.96354 -4.93221,-16.27446 0.43549,-24.50369 -0.95833,-6.92875 -11.44795,-17.71213 0.68808,-20.25329 10.41269,-13.7559 -1.90114,-19.652904 -13.3481,-27.511375 z"
           id="path4549"
           inkscape:connector-curvature="0"
           sodipodi:nodetypes="ccccccccccc" />
        <path
           style="fill:#664c30;fill-opacity:1;stroke:none;stroke-width:0.26458332px;stroke-linecap:butt;stroke-linejoin:miter;stroke-opacity:1"
           d="m 326.2873,100.61651 c -1.69767,-2.048979 0.65708,-8.525323 -5.60205,-11.746613 -6.25914,-3.22129 -5.79688,-0.472775 -8.52227,-0.232555 -2.72539,0.24022 -11.92265,-2.1415 -14.84531,-1.44392 -2.92266,0.69758 -4.57062,1.959029 -5.13483,6.807619 -0.56421,4.84859 1.22289,4.42301 0.76409,8.732319 -0.4588,4.30931 1.49334,3.98508 0.87605,6.42419 -0.61728,2.43911 -4.29326,6.20478 -2.39307,7.62836 1.90019,1.42358 5.42396,1.81988 6.35,3.8128 0.92604,1.99291 1.49198,3.22412 1.53029,6.79285 0.0383,3.56872 6.26562,1.13862 1.98497,6.16573 -4.28065,5.02711 0.60851,2.86871 -2.42946,6.70597 -3.03797,3.83726 -6.4141,3.56205 -6.06626,8.08729 0.34784,4.52526 -6.61975,2.90423 -2.18485,6.4288 4.43491,3.52457 -6.45072,7.43945 1.48172,9.93781 7.93244,2.49837 4.36057,4.65949 10.84286,5.65564 6.48229,0.99617 9.91895,0.007 13.88916,0.60962 3.97021,0.60211 4.44223,1.07162 10.84938,0.67464 6.40715,-0.39699 13.84774,-8.0699 14.37663,-10.71574 0.52889,-2.64582 -1.85794,-3.70988 -5.51309,-4.10067 -3.65515,-0.39079 -14.46869,3.29126 -9.19212,-2.51449 5.27657,-5.80573 6.5593,-7.7275 10.29295,-9.25971 3.73365,-1.53221 8.36472,-4.10352 8.15957,-5.64126 -0.50113,-3.75635 -3.52196,-3.75817 -5.20509,-7.58797 -4.08143,-9.28688 -3.79072,-8.57726 -3.79072,-10.68754 0,-2.11029 0.35321,-5.45182 0.35321,-5.45182 1.58649,-7.77142 -7.13668,-10.94691 -10.87176,-15.08135 z"
           id="path4622"
           inkscape:connector-curvature="0"
           sodipodi:nodetypes="cssssscsccsssccccccscsssscc" />
        <path
           style="fill:#9a6938;fill-opacity:1;stroke:none;stroke-width:0.26499999;stroke-linecap:butt;stroke-linejoin:miter;stroke-miterlimit:4;stroke-dasharray:none;stroke-opacity:1"
           d="m 297.36343,94.165261 c 0.6244,-1.07304 1.35535,-2.394523 2.70791,-2.595801 0.94424,-0.338898 1.76319,-0.946623 2.54423,-1.561929 0.60789,-1.048073 1.6167,0.534021 2.22326,0.907697 0.22878,0.223885 1.15847,0.897316 0.49532,0.683578 0.96815,-0.326089 2.02251,-0.43931 2.88702,-1.02989 0.91763,-0.01343 1.36395,1.210434 1.80145,2.089956 1.4871,1.790555 1.32336,1.525398 1.44188,3.438521 0.8348,1.200118 -0.33195,2.208639 -1.10814,3.028804 -0.8967,1.202753 -1.68728,2.494393 -2.38506,3.819303 -0.32681,0.89373 -0.12754,2.37572 -1.44331,2.42657 -1.1376,0.25729 -2.48836,1.09672 -2.41335,2.41573 0.25757,0.99939 0.74399,1.93824 0.96109,2.95715 0.24178,0.6885 0.64209,1.91953 -0.58327,1.75365 -0.90564,-0.21639 -1.99977,0.96425 -2.63556,-0.0885 -0.51991,-0.97388 -1.1248,-1.90494 -1.92621,-2.67479 -0.82333,-1.16093 1.51601,-0.57385 1.84732,-1.37192 0.48286,-0.92366 0.45567,-2.05608 1.13995,-2.90582 0.48388,-0.68779 0.89822,-1.75534 0.1049,-2.39803 -0.90026,-0.9213 -2.19147,-1.20059 -3.27651,-1.81584 -0.78157,-0.66617 -0.693,-1.844599 -1.15892,-2.713417 -0.19944,-0.886663 -1.05903,-1.654811 -1.81039,-0.783937 -0.57126,0.553663 -1.97693,0.760036 -1.38932,-0.425182 0.46699,-1.139148 0.99592,-2.363225 1.97571,-3.155923 z"
           id="path4608"
           inkscape:connector-curvature="0"
           sodipodi:nodetypes="ccccccccccccccccccccccccc" />
        <path
           style="fill:#9a6938;fill-opacity:1;stroke:none;stroke-width:0.26458332px;stroke-linecap:butt;stroke-linejoin:miter;stroke-opacity:1"
           d="m 308.24597,127.2444 c 0.88228,-0.28065 2.96051,2.14004 3.75813,1.68037 2.56219,-0.76225 5.26729,-1.66082 7.92273,-0.8131 2.32805,-0.44808 5.26158,-1.82552 6.22908,1.35213 1.43246,2.21476 3.18165,3.96851 5.39258,4.73122 7.03915,-0.51076 7.15405,9.93934 3.13373,6.14487 -1.07836,1.2076 -1.2251,0.77035 -3.1944,4.41099 -1.40987,2.61296 -3.21388,4.79368 -5.58209,6.59644 -0.74904,2.50371 0.75369,5.57801 -1.35501,7.86372 2.19213,1.2018 4.3999,-2.2594 6.95819,-1.90287 1.93335,2.6518 -1.24408,5.82084 -3.89038,6.57286 -2.83733,1.32805 -6.23384,1.89224 -8.34098,4.38707 -2.19021,2.33451 -5.05705,0.44006 -7.62608,0.22641 -3.16,-0.91892 -2.8222,-4.98399 -3.7038,-7.56483 -0.90175,-3.69098 -4.86481,0.0918 -5.0097,2.38099 -2.32699,1.85049 -1.96754,-4.11005 -2.72844,-5.60282 -0.74028,-2.88745 -4.11897,-2.82097 -5.76092,-4.80527 -1.02472,-1.88995 -0.29916,-4.17363 -1.16435,-6.02507 2.29193,-0.66521 6.50135,-2.22505 6.98986,1.45521 -0.32513,2.68147 3.3786,3.59722 4.83642,3.762 -1.38549,-2.43178 -2.28761,-5.26313 -1.09465,-7.97036 0.59487,-2.8125 1.0569,-7.09958 -2.42786,-8.14262 0.38769,-3.46396 0.95646,-5.20507 5.42952,-6.65847"
           id="path4612"
           inkscape:connector-curvature="0"
           sodipodi:nodetypes="ccccccccccccccccccccccc" />
        <path
           style="fill:#d8a23b;fill-opacity:1;stroke:none;stroke-width:0.26458332px;stroke-linecap:butt;stroke-linejoin:miter;stroke-opacity:1"
           d="m 321.25201,150.68778 c 2.61672,-6.31096 -0.89041,-14.55595 -8.34515,-14.21321 -5.15709,-0.95774 -6.90566,6.77956 -0.46389,5.29321 4.89594,0.6126 5.00103,7.45032 8.80904,8.92 z"
           id="path4681"
           inkscape:connector-curvature="0" />
        <path
           style="fill:#d8a23b;fill-opacity:1;stroke:none;stroke-width:0.26458332px;stroke-linecap:butt;stroke-linejoin:miter;stroke-opacity:1"
           d="m 324.65381,150.69959 c 0.76764,0.57686 -0.0826,1.07487 -0.22443,1.68908 -0.14175,0.61421 0.33072,0.88588 0.0945,1.68908 -0.23624,0.8032 -0.42523,1.18118 -0.61421,1.98438 -0.18899,0.8032 -0.6142,1.74814 -0.6142,1.74814 0,0 -0.0473,0.42522 0.0945,0.61421 0.14174,0.18899 0.37798,0.23623 0.75595,-0.23624 0.37798,-0.47247 0.61421,-0.7087 0.8032,-1.70089 0.18899,-0.99219 0.0945,-1.08668 0.23624,-2.3151 0.17956,-2.37005 1.16809,-4.1289 1.05124,-4.63022 -0.44848,-2.71385 -2.41334,0.30385 -1.58278,1.15756 z"
           id="path4683"
           inkscape:connector-curvature="0"
           sodipodi:nodetypes="cccccccsccc" />
        <path
           style="fill:#d8a23b;fill-opacity:1;stroke:none;stroke-width:0.26458332px;stroke-linecap:butt;stroke-linejoin:miter;stroke-opacity:1"
           d="m 318.807,156.86533 c -1.80052,-0.34231 -2.03502,-2.55728 -3.27757,-3.62963 -1.26786,-0.93164 -0.74698,-4.00454 -2.33019,-3.97312 -0.81952,1.23632 -2.28794,2.44978 -3.73804,1.31514 -1.53453,-0.82062 -2.5225,0.92229 -3.18813,2.00547 -1.14382,1.39766 -2.79139,0.4847 -4.19622,0.2042 -1.45265,-1.23544 -3.79772,0.004 -2.03244,1.68819 1.06634,1.08842 2.40787,1.91882 3.74738,2.62228 2.14267,0.7802 3.73246,-1.55251 5.78523,-1.70106 2.02007,-0.29541 4.00376,0.44148 5.50469,1.80077 1.13202,0.57131 3.2857,1.61828 3.72529,-0.33224 z"
           id="path4687"
           inkscape:connector-curvature="0" />
        <path
           style="fill:#d8a23b;fill-opacity:1;stroke:none;stroke-width:0.26458332px;stroke-linecap:butt;stroke-linejoin:miter;stroke-opacity:1"
           d="m 303.35721,94.853608 c -0.81589,-3.280099 -6.81854,-0.233703 -4.37293,2.114527 2.08036,0.553779 4.24893,2.849514 6.23169,2.182232 0.96715,-1.263368 3.17615,-2.893581 2.70748,-4.401597 -1.42931,-0.704872 -3.08188,0.450071 -4.56624,0.104838 z"
           id="path4716"
           inkscape:connector-curvature="0" />
        <g
           id="g4646"
           transform="matrix(-1,0,0,1,494.52303,-15.957046)">
          <path
             style="fill:#d8a23b;fill-opacity:1;stroke:#000000;stroke-width:0.76499999;stroke-linecap:butt;stroke-linejoin:miter;stroke-miterlimit:4;stroke-dasharray:none;stroke-opacity:1"
             d="m 191.1485,122.5919 c -0.88898,-3.63363 1.50251,-8.16506 5.53529,-8.28516 2.7401,0.0697 5.95034,2.48969 5.89447,5.37776 -0.53976,3.43645 -4.10409,4.30232 -7.0634,4.29928 -1.56973,0.13358 -3.22336,-0.25012 -4.36636,-1.39188 z"
             id="path4598"
             inkscape:connector-curvature="0" />
          <path
             inkscape:connector-curvature="0"
             id="path4600"
             d="m 195.91549,117.29687 -0.85989,1.69144 c 0,0 -0.31723,0.8961 0.0661,1.32637 0.38337,0.43027 0.79375,1.08323 0.79375,1.08323 0,0 0.39688,0.0483 0.66145,0.0903 0.26458,0.042 0.48186,-0.56557 0.43762,-1.77453 -0.0442,-1.20896 0.34195,-1.74661 -0.0218,-2.14277 -0.36379,-0.39615 -1.07724,-0.27403 -1.07724,-0.27403 z"
             style="fill:#100f0e;fill-opacity:1;stroke:#000000;stroke-width:0.26458332px;stroke-linecap:butt;stroke-linejoin:miter;stroke-opacity:1" />
        </g>
        <g
           id="g4650"
           transform="matrix(-1,0,0,1,584.76605,-0.80180858)">
          <path
             style="fill:#d8a23b;fill-opacity:1;stroke:#000000;stroke-width:0.86500001;stroke-linecap:butt;stroke-linejoin:miter;stroke-miterlimit:4;stroke-dasharray:none;stroke-opacity:1"
             d="m 248.02984,104.24932 c 1.16347,-1.92769 2.27616,-4.328096 4.75666,-4.75146 1.98545,-0.27774 4.50292,0.142625 5.69225,1.92046 1.04227,1.99121 1.95968,4.73321 0.29313,6.66079 -1.88104,1.73525 -4.79701,1.42935 -7.03641,0.62404 -1.46964,-0.50964 -3.11323,-1.29763 -3.30703,-3.04441 -0.0764,-0.48315 -0.38069,-0.92606 -0.3986,-1.40942 z"
             id="path4596"
             inkscape:connector-curvature="0" />
          <path
             inkscape:connector-curvature="0"
             id="path4602"
             d="m 254.08229,102.48836 c 0,0 -0.68331,0.36052 -0.68754,0.65328 -0.004,0.29276 -0.35433,0.98854 -0.30421,1.21405 0.0501,0.22551 0.21689,1.72439 0.23948,1.8059 0.0226,0.0815 0.11125,0.2033 0.30338,0.37636 0.19213,0.17305 0.45312,0.61502 0.51055,0.26458 0.0574,-0.35045 0.5335,-1.10214 0.59197,-1.60327 0.0585,-0.50113 0.25056,-0.81852 0.10857,-1.28624 -0.14198,-0.46772 -0.40873,-0.90566 -0.41734,-1.07924 -0.009,-0.17358 -0.34486,-0.34542 -0.34486,-0.34542 z"
             style="fill:#100f0e;fill-opacity:1;stroke:#000000;stroke-width:0.26499999;stroke-linecap:butt;stroke-linejoin:miter;stroke-miterlimit:4;stroke-dasharray:none;stroke-opacity:1" />
        </g>
        <path
           style="fill:none;stroke:#000000;stroke-width:1.96500003;stroke-linecap:round;stroke-linejoin:miter;stroke-miterlimit:4;stroke-dasharray:none;stroke-opacity:1"
           d="m 307.67108,115.82374 1.26954,0.93544 c 0,0 0.90203,-0.15034 1.43657,-0.50113 0.53454,-0.35079 2.73951,-1.75396 2.73951,-1.75396 0,0 0.71829,-0.61805 0.80181,-0.73499 0.0835,-0.11693 0.53693,-0.81567 0.53693,-0.81567 l -0.0191,-0.70442 c 0,0 0.61806,-0.23386 0.93544,-0.51784 0.31738,-0.28397 0.60136,-1.00226 0.28397,-1.08578 -0.31738,-0.0835 -1.45327,-0.35079 -1.70384,-0.36749 -0.25056,-0.0167 -1.20271,0.18374 -1.20271,0.18374 0,0 -0.66818,0.21716 -0.18375,0.63477 0.48443,0.41761 0.89455,0.14008 1.09875,0.48765 0.20419,0.34756 0.57169,0.81529 0.60509,0.91551 0.0334,0.10023 0.10023,1.25283 0.18375,1.36976 0.0835,0.11693 -0.0167,0.20045 0.51783,0.50113 0.53454,0.30068 1.08579,0.61806 1.35306,0.80181 0.26727,0.18375 1.21941,0.71829 1.5535,0.91874 0.33409,0.20045 1.06908,0.55124 1.35305,0.56795 0.28398,0.0167 0.86863,-0.20046 1.1359,-0.46773 0.26727,-0.26727 0.83522,-0.7851 0.83522,-0.7851"
           id="path4604"
           inkscape:connector-curvature="0" />
        <path
           style="fill:none;stroke:#000000;stroke-width:1.56500006;stroke-linecap:round;stroke-linejoin:round;stroke-miterlimit:4;stroke-dasharray:none;stroke-opacity:1"
           d="m 337.19416,137.37188 c 0.50893,2.36694 -0.38744,7.26358 -2.51194,2.96801 -3.99556,0.35665 -2.30944,9.30562 -7.08968,9.14839 -0.58253,-1.61382 0.54197,-7.29454 -2.69724,-4.34653 -2.34491,3.76227 -0.38673,8.80108 -3.18444,12.33119 -2.63989,-3.25937 -5.88748,-6.33869 -6.56543,-10.69389 -0.28322,-4.55601 -4.93571,-5.3976 -4.05717,-0.083 0.25467,2.50476 -0.65677,3.93816 -1.37132,0.63929 -2.44734,-3.08403 -5.04837,-7.5682 -6.83419,-10.02915 -3.22619,2.36093 -2.47758,0.47101 -2.45961,-1.9517"
           id="path4606"
           inkscape:connector-curvature="0" />
        <path
           inkscape:connector-curvature="0"
           id="path5688"
           d="m 277.20368,153.70911 c 0.13928,-0.066 4.07375,-1.02248 4.07375,-1.02248 l 4.17821,17.71211 -3.93447,0.42878 c 0,0 -2.71583,-4.08994 -2.75063,-4.41977 -0.0348,-0.32984 -1.56686,-12.69864 -1.56686,-12.69864 z"
           style="fill:#100f0e;fill-opacity:1;stroke:none;stroke-width:0.2683832px;stroke-linecap:butt;stroke-linejoin:miter;stroke-opacity:1" />
      </g>
    </g>
  </g>
</svg>
